<?xml version="1.0" standalone="no"?>
<!DOCTYPE svg PUBLIC "-//W3C//DTD SVG 20010904//EN"
 "http://www.w3.org/TR/2001/REC-SVG-20010904/DTD/svg10.dtd">
<svg version="1.0" xmlns="http://www.w3.org/2000/svg"
 width="364.000000pt" height="120.000000pt" viewBox="0 0 364.000000 120.000000"
 preserveAspectRatio="xMidYMid meet">

<g transform="translate(0.000000,120.000000) scale(0.100000,-0.100000)"
fill="#000000" stroke="none">
<path d="M2550 589 c0 -220 3 -280 13 -277 9 4 13 71 15 281 2 242 0 277 -13
277 -13 0 -15 -37 -15 -281z"/>
<path d="M350 811 c0 -5 9 -11 20 -14 20 -5 20 -10 14 -94 -3 -48 -9 -137 -12
-198 -6 -100 -9 -110 -29 -121 -33 -16 -18 -24 44 -24 53 0 71 13 33 25 -19 6
-20 15 -19 123 1 64 4 146 8 182 l6 65 56 -115 c30 -63 70 -148 89 -187 29
-64 50 -91 50 -64 0 20 164 351 171 344 4 -5 9 -83 11 -175 l5 -167 -23 -5
c-48 -12 -23 -26 46 -26 72 0 87 9 47 27 -23 11 -24 17 -30 149 -12 235 -10
264 13 264 11 0 20 5 20 10 0 6 -20 10 -44 10 -50 0 -42 11 -148 -225 -27 -60
-55 -116 -62 -123 -10 -10 -24 13 -71 120 -102 234 -98 228 -150 228 -25 0
-45 -4 -45 -9z"/>
<path d="M940 811 c0 -5 10 -11 23 -13 22 -3 22 -6 27 -175 6 -191 12 -210 81
-245 47 -24 143 -24 189 1 65 34 75 65 79 254 3 156 4 167 22 167 10 0 19 5
19 10 0 6 -25 10 -55 10 -30 0 -55 -4 -55 -10 0 -5 9 -10 20 -10 19 0 20 -7
20 -155 0 -221 -20 -259 -140 -257 -116 2 -130 28 -130 251 0 153 1 161 19
161 11 0 23 5 26 10 4 6 -22 10 -69 10 -42 0 -76 -4 -76 -9z"/>
<path d="M1663 800 c-37 -22 -53 -48 -53 -85 0 -59 40 -100 151 -151 84 -39
110 -99 66 -150 -20 -23 -31 -27 -80 -27 -67 0 -105 21 -114 63 -3 17 -9 30
-13 30 -9 0 -20 -35 -20 -63 0 -26 74 -57 138 -57 69 0 117 21 142 62 44 73
12 134 -99 190 -95 48 -121 72 -121 114 0 86 151 103 180 20 9 -25 13 -28 20
-16 5 8 10 27 10 42 0 20 -7 28 -31 37 -52 18 -140 14 -176 -9z"/>
<path d="M1970 810 c0 -5 9 -10 20 -10 19 0 20 -7 20 -204 0 -196 -1 -205 -20
-211 -40 -13 -18 -25 44 -25 67 0 95 13 51 24 -24 6 -25 8 -25 101 l0 95 135
0 135 0 0 -94 c0 -92 -1 -94 -25 -100 -48 -12 -25 -26 45 -26 68 0 91 12 50
25 -19 6 -20 15 -20 211 0 197 1 204 20 204 11 0 20 5 20 10 0 6 -30 10 -70
10 -66 0 -98 -15 -47 -22 21 -3 22 -8 25 -95 l3 -93 -136 0 -136 0 3 93 c3 87
4 92 26 95 50 7 18 22 -48 22 -40 0 -70 -4 -70 -10z"/>
<path d="M1454 406 c-10 -26 4 -48 28 -44 17 2 23 10 23 28 0 18 -6 26 -23 28
-13 2 -25 -3 -28 -12z"/>
</g>
</svg>
